<svg width="159" height="83" viewBox="0 0 159 83" fill="none" xmlns="http://www.w3.org/2000/svg">
<g opacity="0.3">
<path d="M28.137 8.76443C34.8155 -2.92148 51.8253 -2.92148 58.5041 8.76443C58.5041 8.76443 59.1285 9.7606 59.4528 10.4367C62.226 16.2157 59.4262 20.1618 56.463 26.511C54.9487 29.755 52.8585 32.7675 50.5623 35.8206C49.9567 36.626 49.3316 37.4404 48.6997 38.264C46.9792 40.5049 45.2088 42.8111 43.6503 45.1705C39.2951 51.7633 36.2593 59.2409 38.877 69.2044C40.1561 74.0734 42.3292 77.444 44.7292 79.7599H17.469C4.10981 79.7599 -4.2909 65.507 2.28559 53.9994L28.137 8.76443Z" fill="#6A4CFF"/>
<path d="M77.1232 77.8932C74.7802 79.0791 72.0952 79.7614 69.1728 79.7614H55.0102C53.5792 79.7614 52.1302 79.5718 50.8848 78.8861C48.2819 77.4526 45.0423 74.4968 43.389 68.204C41.1588 59.7167 43.6379 53.4104 47.6178 47.3859C49.0874 45.1615 50.7179 43.037 52.4062 40.8376C53.0579 39.989 53.7179 39.1291 54.3806 38.2478C56.7194 35.1382 59.0261 31.8422 60.7286 28.1942C62.4116 24.5881 63.3566 21.1736 63.8246 18.0755L84.3558 54.0009C89.2882 62.6317 85.7962 72.8062 78.1061 77.3544C77.7858 77.544 77.4581 77.7239 77.1232 77.8932Z" fill="#4CC4FF"/>
</g>
<path d="M70.976 46.024H64.688L63.68 49H59.384L65.48 32.152H70.232L76.328 49H71.984L70.976 46.024ZM69.92 42.856L67.832 36.688L65.768 42.856H69.92ZM80.2473 34.216C79.5273 34.216 78.9353 34.008 78.4713 33.592C78.0233 33.16 77.7993 32.632 77.7993 32.008C77.7993 31.368 78.0233 30.84 78.4713 30.424C78.9353 29.992 79.5273 29.776 80.2473 29.776C80.9513 29.776 81.5273 29.992 81.9753 30.424C82.4393 30.84 82.6713 31.368 82.6713 32.008C82.6713 32.632 82.4393 33.16 81.9753 33.592C81.5273 34.008 80.9513 34.216 80.2473 34.216ZM82.2873 35.608V49H78.1833V35.608H82.2873ZM89.3654 37.84C89.8454 37.104 90.4454 36.528 91.1654 36.112C91.8854 35.68 92.6854 35.464 93.5654 35.464V39.808H92.4374C91.4134 39.808 90.6454 40.032 90.1334 40.48C89.6214 40.912 89.3654 41.68 89.3654 42.784V49H85.2614V35.608H89.3654V37.84ZM112.615 35.464C114.279 35.464 115.599 35.968 116.575 36.976C117.567 37.984 118.063 39.384 118.063 41.176V49H113.983V41.728C113.983 40.864 113.751 40.2 113.287 39.736C112.839 39.256 112.215 39.016 111.415 39.016C110.615 39.016 109.983 39.256 109.519 39.736C109.071 40.2 108.847 40.864 108.847 41.728V49H104.767V41.728C104.767 40.864 104.535 40.2 104.071 39.736C103.623 39.256 102.999 39.016 102.199 39.016C101.399 39.016 100.767 39.256 100.303 39.736C99.8551 40.2 99.6311 40.864 99.6311 41.728V49H95.5271V35.608H99.6311V37.288C100.047 36.728 100.591 36.288 101.263 35.968C101.935 35.632 102.695 35.464 103.543 35.464C104.551 35.464 105.447 35.68 106.231 36.112C107.031 36.544 107.655 37.16 108.103 37.96C108.567 37.224 109.199 36.624 109.999 36.16C110.799 35.696 111.671 35.464 112.615 35.464ZM133.557 42.088C133.557 42.472 133.533 42.872 133.485 43.288H124.197C124.261 44.12 124.525 44.76 124.989 45.208C125.469 45.64 126.053 45.856 126.741 45.856C127.765 45.856 128.477 45.424 128.877 44.56H133.245C133.021 45.44 132.613 46.232 132.021 46.936C131.445 47.64 130.717 48.192 129.837 48.592C128.957 48.992 127.973 49.192 126.885 49.192C125.573 49.192 124.405 48.912 123.381 48.352C122.357 47.792 121.557 46.992 120.981 45.952C120.405 44.912 120.117 43.696 120.117 42.304C120.117 40.912 120.397 39.696 120.957 38.656C121.533 37.616 122.333 36.816 123.357 36.256C124.381 35.696 125.557 35.416 126.885 35.416C128.181 35.416 129.333 35.688 130.341 36.232C131.349 36.776 132.133 37.552 132.693 38.56C133.269 39.568 133.557 40.744 133.557 42.088ZM129.357 41.008C129.357 40.304 129.117 39.744 128.637 39.328C128.157 38.912 127.557 38.704 126.837 38.704C126.149 38.704 125.565 38.904 125.085 39.304C124.621 39.704 124.333 40.272 124.221 41.008H129.357ZM148.346 42.088C148.346 42.472 148.322 42.872 148.274 43.288H138.986C139.05 44.12 139.314 44.76 139.778 45.208C140.258 45.64 140.842 45.856 141.53 45.856C142.554 45.856 143.266 45.424 143.666 44.56H148.034C147.81 45.44 147.402 46.232 146.81 46.936C146.234 47.64 145.506 48.192 144.626 48.592C143.746 48.992 142.762 49.192 141.674 49.192C140.362 49.192 139.194 48.912 138.17 48.352C137.146 47.792 136.346 46.992 135.77 45.952C135.194 44.912 134.906 43.696 134.906 42.304C134.906 40.912 135.186 39.696 135.746 38.656C136.322 37.616 137.122 36.816 138.146 36.256C139.17 35.696 140.346 35.416 141.674 35.416C142.97 35.416 144.122 35.688 145.13 36.232C146.138 36.776 146.922 37.552 147.482 38.56C148.058 39.568 148.346 40.744 148.346 42.088ZM144.146 41.008C144.146 40.304 143.906 39.744 143.426 39.328C142.946 38.912 142.346 38.704 141.626 38.704C140.938 38.704 140.354 38.904 139.874 39.304C139.41 39.704 139.122 40.272 139.01 41.008H144.146ZM157.975 45.52V49H155.887C154.399 49 153.239 48.64 152.407 47.92C151.575 47.184 151.159 45.992 151.159 44.344V39.016H149.527V35.608H151.159V32.344H155.263V35.608H157.951V39.016H155.263V44.392C155.263 44.792 155.359 45.08 155.551 45.256C155.743 45.432 156.063 45.52 156.511 45.52H157.975Z" fill="#141414"/>
</svg>
