<svg width="254" height="86" viewBox="0 0 254 86" fill="none" xmlns="http://www.w3.org/2000/svg">
<g opacity="0.3">
<path d="M43 86C66.7482 86 86 66.7482 86 43C86 19.2518 66.7482 0 43 0C19.2518 0 0 19.2518 0 43C0 66.7482 19.2518 86 43 86Z" fill="url(#paint0_linear_184_603)"/>
<path d="M39.3123 29.1914C37.5923 29.1914 36.1978 30.586 36.1978 32.306C36.1978 34.026 37.5923 35.4206 39.3123 35.4206H46.2853C48.0053 35.4206 49.3999 34.026 49.3999 32.306C49.3999 30.586 48.0053 29.1914 46.2853 29.1914H39.3123ZM37.8713 32.306C37.8713 31.5157 38.5221 30.9114 39.2659 30.9114H46.2388C47.0291 30.9114 47.6334 31.5622 47.6334 32.306C47.6334 33.0963 46.9826 33.7006 46.2388 33.7006H39.2659C38.5221 33.7006 37.8713 33.0498 37.8713 32.306Z" fill="white"/>
<path d="M50.8055 38.2126C49.0855 38.2126 47.6909 39.6072 47.6909 41.3272C47.6909 43.0472 49.0855 44.4418 50.8055 44.4418H57.7785C59.4985 44.4418 60.8931 43.0472 60.8931 41.3272C60.8931 39.6072 59.4985 38.2126 57.7785 38.2126H50.8055ZM49.4109 41.3272C49.4109 40.537 50.0617 39.9327 50.8055 39.9327H57.7785C58.5688 39.9327 59.1731 40.5835 59.1731 41.3272C59.1731 42.1175 58.5223 42.7218 57.7785 42.7218H50.8055C50.0152 42.7218 49.4109 42.1175 49.4109 41.3272Z" fill="white"/>
<path d="M50.8055 20.1306C49.0855 20.1306 47.6909 21.5252 47.6909 23.2452C47.6909 24.9652 49.0855 26.3598 50.8055 26.3598H57.7785C59.4985 26.3598 60.8931 24.9652 60.8931 23.2452C60.8931 21.5252 59.4985 20.1306 57.7785 20.1306H50.8055ZM49.4109 23.2452C49.4109 22.4549 50.0617 21.8506 50.8055 21.8506H57.7785C58.5688 21.8506 59.1731 22.5014 59.1731 23.2452C59.1731 23.989 58.5223 24.6398 57.7785 24.6398H50.8055C50.0152 24.6863 49.4109 24.0355 49.4109 23.2452Z" fill="white"/>
<path fill-rule="evenodd" clip-rule="evenodd" d="M17.3346 40.3049C16.6373 40.3049 16.126 40.8628 16.126 41.5136V61.2238C16.126 61.9211 16.6838 62.4325 17.3346 62.4325H28.0265C28.7238 62.4325 29.2352 61.8747 29.2352 61.2238V59.4109C30.0719 59.5039 31.0481 59.8293 32.1173 60.2941C33.1865 60.759 34.3487 61.3633 35.5573 62.0141C35.8363 62.1536 36.1152 62.293 36.3941 62.4325C39.4157 64.013 42.8557 65.6865 46.4816 65.6865C50.0611 65.6865 54.8492 64.013 59.126 61.9211C61.2644 60.852 63.2633 59.6898 64.9833 58.5276C66.6568 57.3655 68.0514 56.2033 68.8881 55.1341C69.7249 54.1114 69.9573 52.9493 69.7714 51.8801C69.5854 50.8574 68.9811 49.9276 68.1908 49.3233C66.6568 48.0682 64.1465 47.6963 62.3336 49.5093C60.939 50.9038 59.4049 52.0195 58.0103 52.8098C56.9411 53.4141 56.0114 53.7395 55.2676 53.9255C55.0817 52.9493 54.5703 52.159 53.873 51.5547C52.9898 50.8109 51.8276 50.3925 50.619 50.1601C48.3411 49.6952 45.6449 49.8347 43.8319 49.9276C43.4135 49.6487 42.9487 49.3698 42.4838 49.0444C42.2979 48.9049 42.0654 48.7655 41.833 48.626C40.9962 48.0682 40.02 47.4638 38.8579 46.8595C36.6265 45.7903 33.6514 44.9536 29.2817 44.8606V41.5601C29.2817 40.8628 28.7238 40.3514 28.073 40.3514H17.3346V40.3049ZM29.2352 46.4411V57.7374C30.3973 57.8303 31.606 58.2487 32.7681 58.7601C33.9303 59.2714 35.139 59.9222 36.3476 60.573C36.6265 60.7125 36.859 60.852 37.1379 60.9914C40.1595 62.572 43.2741 64.0595 46.4352 64.0595C49.6427 64.0595 54.1519 62.5255 58.3357 60.4801C60.4276 59.4574 62.38 58.2952 63.9606 57.1795C65.5876 56.0638 66.8427 54.9947 67.54 54.1114C68.0979 53.4141 68.1908 52.7633 68.0979 52.2055C68.0049 51.6011 67.633 51.0433 67.1217 50.6249C66.0525 49.7417 64.5184 49.6022 63.4492 50.6714C61.9617 52.159 60.2881 53.3676 58.7541 54.2509C57.22 55.0876 55.7325 55.6455 54.4773 55.6455C54.4773 55.6455 54.4773 55.6455 54.4308 55.6455H38.3C37.8352 55.6455 37.4633 55.2736 37.4633 54.8087C37.4633 54.3438 37.8352 53.972 38.3 53.972H53.5941C53.4546 53.4606 53.1757 53.0887 52.8038 52.7633C52.1995 52.252 51.3627 51.9266 50.2935 51.6941C48.1552 51.2757 45.5519 51.4152 43.6925 51.5082H43.46L43.2276 51.3687C42.6698 51.0433 42.0654 50.6249 41.5076 50.253C41.3217 50.1136 41.1357 49.9741 40.9498 49.8811C40.1595 49.3233 39.2762 48.7655 38.2071 48.2541C36.1152 47.3709 33.419 46.5341 29.2352 46.4411ZM17.753 60.8055V41.932H27.6081V60.8055H17.753Z" fill="white"/>
<mask id="mask0_184_603" style="mask-type:alpha" maskUnits="userSpaceOnUse" x="15" y="40" width="56" height="26">
<path d="M70.1404 40.0212H15.8442V65.8677H70.1404V40.0212Z" fill="white"/>
<path fill-rule="evenodd" clip-rule="evenodd" d="M17.3297 40.3047C16.6324 40.3047 16.1211 40.8625 16.1211 41.5133V61.2236C16.1211 61.9209 16.6789 62.4323 17.3297 62.4323H28.0216C28.7189 62.4323 29.2303 61.8744 29.2303 61.2236V59.4106C30.067 59.5036 31.0433 59.829 32.1124 60.2939C33.1816 60.7587 34.3438 61.3631 35.5524 62.0139C35.8314 62.1533 36.1103 62.2928 36.3892 62.4323C39.4108 64.0128 42.8508 65.6863 46.4768 65.6863C50.0562 65.6863 54.8443 64.0128 59.1211 61.9209C61.2595 60.8517 63.2584 59.6896 64.9784 58.5274C66.6519 57.3652 68.0465 56.2031 68.8833 55.1339C69.72 54.1112 69.9524 52.949 69.7665 51.8798C69.5806 50.8571 68.9762 49.9274 68.186 49.3231C66.6519 48.0679 64.1416 47.696 62.3287 49.509C60.9341 50.9036 59.4 52.0193 58.0054 52.8096C56.9362 53.4139 56.0065 53.7393 55.2627 53.9252C55.0768 52.949 54.5654 52.1587 53.8681 51.5544C52.9849 50.8106 51.8227 50.3922 50.6141 50.1598C48.3362 49.695 45.64 49.8344 43.827 49.9274C43.4087 49.6485 42.9438 49.3695 42.4789 49.0441C42.293 48.9047 42.0606 48.7652 41.8281 48.6258C40.9914 48.0679 40.0151 47.4636 38.853 46.8593C36.6216 45.7901 33.6465 44.9533 29.2768 44.8604V41.5598C29.2768 40.8625 28.7189 40.3512 28.0681 40.3512H17.3297V40.3047ZM29.2303 46.4409V57.7371C30.3924 57.8301 31.6011 58.2485 32.7633 58.7598C33.9254 59.2712 35.1341 59.922 36.3427 60.5728C36.6216 60.7123 36.8541 60.8517 37.133 60.9912C40.1546 62.5717 43.2692 64.0593 46.4303 64.0593C49.6379 64.0593 54.147 62.5252 58.3308 60.4798C60.4227 59.4571 62.3751 58.295 63.9557 57.1793C65.5827 56.0636 66.8379 54.9944 67.5352 54.1112C68.093 53.4139 68.186 52.7631 68.093 52.2052C68 51.6009 67.6281 51.0431 67.1168 50.6247C66.0476 49.7414 64.5135 49.602 63.4443 50.6712C61.9568 52.1587 60.2833 53.3674 58.7492 54.2506C57.2152 55.0874 55.7276 55.6452 54.4725 55.6452C54.4725 55.6452 54.4725 55.6452 54.426 55.6452H38.2952C37.8303 55.6452 37.4584 55.2733 37.4584 54.8085C37.4584 54.3436 37.8303 53.9717 38.2952 53.9717H53.5892C53.4497 53.4604 53.1708 53.0885 52.7989 52.7631C52.1946 52.2517 51.3579 51.9263 50.2887 51.6939C48.1503 51.2755 45.547 51.415 43.6876 51.5079H43.4551L43.2227 51.3685C42.6649 51.0431 42.0606 50.6247 41.5027 50.2528C41.3168 50.1133 41.1308 49.9739 40.9449 49.8809C40.1546 49.3231 39.2714 48.7652 38.2022 48.2539C36.1103 47.3706 33.4141 46.5339 29.2303 46.4409ZM17.7481 60.8052V41.9317H27.6033V60.8052H17.7481Z" fill="#010101"/>
</mask>
<g mask="url(#mask0_184_603)">
<path d="M29.2232 59.4116V59.3186H29.1302V59.4116H29.2232ZM32.1053 60.2948L32.1518 60.2018L32.1053 60.2948ZM35.5918 62.0148L35.5453 62.0613L35.5918 62.0148ZM35.5918 62.0148L35.6383 61.9683L35.5918 62.0148ZM36.3821 62.4797L36.3356 62.5262L36.3821 62.4797ZM59.114 61.9683L59.0675 61.9218L59.114 61.9683ZM64.9713 58.5748L65.0178 58.6213L64.9713 58.5748ZM68.8761 55.1813L68.9226 55.2278L68.8761 55.1813ZM69.7594 51.9272H69.8524H69.7594ZM68.1788 49.3705L68.2253 49.324L68.1788 49.3705ZM62.3215 49.5564L62.368 49.6029L62.3215 49.5564ZM57.9983 52.857L58.0448 52.9035L57.9983 52.857ZM55.2091 53.9726H55.1161V54.0656H55.2091V53.9726ZM53.861 51.5554L53.9075 51.5089L53.861 51.5554ZM50.6069 50.1608V50.0678V50.1608ZM43.8199 49.9283L43.7734 49.9748H43.8199V49.9283ZM42.4253 48.9986L42.4718 48.9521L42.4253 48.9986ZM41.821 48.5802L41.7745 48.6267L41.821 48.5802ZM38.8459 46.8602L38.7994 46.9532L38.8459 46.8602ZM29.2232 44.8148H29.1302V44.9078H29.2232V44.8148ZM29.2232 46.4418V46.3489H29.1302V46.4418H29.2232ZM29.2232 57.7845H29.1302V57.8775H29.2232V57.7845ZM32.8026 58.8072L32.7561 58.9002L32.8026 58.8072ZM36.3821 60.5737L36.4286 60.5272L36.3821 60.5737ZM36.3821 60.5737L36.3356 60.6202L36.3821 60.5737ZM37.1723 60.9921L37.1259 61.0386L37.1723 60.9921ZM58.3702 60.5272L58.4167 60.5737L58.3702 60.5272ZM64.0415 57.2267L64.088 57.2732L64.0415 57.2267ZM67.5745 54.1586L67.621 54.2051L67.5745 54.1586ZM68.1788 52.2062H68.2718H68.1788ZM67.1561 50.6721L67.1096 50.7186L67.1561 50.6721ZM63.4837 50.7186L63.5302 50.7651L63.4837 50.7186ZM58.7886 54.2981L58.7421 54.2516L58.7886 54.2981ZM54.5118 55.6926V55.5997V55.6926ZM53.5821 54.0656V54.1586H53.6751L53.6286 54.0191L53.5821 54.0656ZM52.7918 52.8105L52.7453 52.857L52.7918 52.8105ZM50.2815 51.7878V51.6948V51.7878ZM43.634 51.6018V51.5089V51.6018ZM43.4015 51.6018L43.3551 51.6483L43.4015 51.6018ZM43.2156 51.4624L43.1691 51.5089L43.2156 51.4624ZM41.4491 50.3467L41.4956 50.3002L41.4491 50.3467ZM40.8913 49.9283L40.9378 49.8818L40.8913 49.9283ZM38.1021 48.3013L38.1486 48.2083L38.1021 48.3013ZM17.741 41.9327V41.8397H17.648V41.9327H17.741ZM17.741 60.8062H17.648V60.8991H17.741V60.8062ZM27.5961 41.9327H27.6891V41.8397H27.5961V41.9327ZM27.5961 60.8062V60.8991H27.6891V60.8062H27.5961ZM16.1605 41.5143C16.1605 40.8635 16.6718 40.3521 17.3226 40.3521V40.2126C16.5788 40.2126 16.021 40.817 16.021 41.5143H16.1605ZM16.1605 61.2245V41.5143H16.021V61.2245H16.1605ZM17.3226 62.3867C16.6718 62.3867 16.1605 61.8753 16.1605 61.2245H16.021C16.021 61.9683 16.6253 62.5262 17.3226 62.5262V62.3867ZM28.0145 62.3867H17.3226V62.5262H28.0145V62.3867ZM29.1767 61.2245C29.1767 61.8753 28.6653 62.3867 28.0145 62.3867V62.5262C28.7583 62.5262 29.3161 61.9218 29.3161 61.2245H29.1767ZM29.1767 59.4116V61.2245H29.3161V59.4116H29.1767ZM29.2232 59.5045C30.0599 59.5975 31.0361 59.9229 32.1053 60.3878L32.1518 60.2483C31.0826 59.7835 30.1064 59.4581 29.2232 59.3651V59.5045ZM32.1053 60.3878C33.1745 60.8526 34.3367 61.457 35.5453 62.1078L35.6383 61.9683C34.4296 61.3175 33.2675 60.7132 32.1983 60.2483L32.1053 60.3878ZM35.5453 62.1078L35.6383 61.9683L35.5453 62.1078ZM35.5453 62.1078C35.8242 62.2472 36.1032 62.3867 36.3821 62.5262L36.475 62.3867C36.1961 62.2472 35.9172 62.1078 35.6383 61.9683L35.5453 62.1078ZM36.3821 62.5262C39.4037 64.1067 42.8437 65.8267 46.5161 65.8267V65.6872C42.9367 65.6872 39.4967 64.0137 36.475 62.4332L36.3821 62.5262ZM46.4696 65.8267C50.0491 65.8267 54.8837 64.1532 59.114 62.0613L59.0675 61.9218C54.8372 64.0137 50.0491 65.6872 46.4696 65.6872V65.8267ZM59.1605 62.0613C61.2988 60.9921 63.3442 59.8299 65.0178 58.6678L64.9248 58.5283C63.2513 59.6905 61.2059 60.8526 59.0675 61.9218L59.1605 62.0613ZM65.0178 58.6678C66.6913 57.5056 68.0859 56.297 68.9691 55.2278L68.8297 55.1348C67.9929 56.204 66.5983 57.3662 64.9248 58.5283L65.0178 58.6678ZM68.9226 55.2278C69.7594 54.1586 70.0383 52.9964 69.8524 51.9272L69.7129 51.9737C69.8988 52.9964 69.6199 54.1121 68.8297 55.1348L68.9226 55.2278ZM69.8524 51.9272C69.6664 50.8581 69.0156 49.9748 68.2253 49.324L68.1324 49.4635C68.9226 50.0678 69.5269 50.951 69.7129 51.9737L69.8524 51.9272ZM68.2253 49.324C66.6448 48.0689 64.088 47.697 62.2286 49.5099L62.3215 49.6029C64.088 47.8364 66.5518 48.2083 68.0859 49.417L68.2253 49.324ZM62.2751 49.5099C60.8805 50.9045 59.3929 52.0202 57.9518 52.8105L58.0448 52.9499C59.4859 52.1597 61.0199 51.044 62.4145 49.6494L62.2751 49.5099ZM57.9518 52.8105C56.8826 53.4148 55.9529 53.7402 55.2091 53.8797L55.2556 54.0191C55.9994 53.8797 56.9756 53.5078 58.0448 52.9035L57.9518 52.8105ZM55.3021 53.9262C55.1161 52.9035 54.6048 52.1132 53.9075 51.5089L53.8145 51.6483C54.5118 52.2527 54.9767 52.9964 55.1626 53.9726L55.3021 53.9262ZM53.9075 51.5089C53.0242 50.7651 51.8156 50.3002 50.6534 50.0678L50.6069 50.2072C51.8156 50.4397 52.9313 50.8581 53.8145 51.6018L53.9075 51.5089ZM50.6069 50.0678C48.3291 49.6029 45.6329 49.7424 43.8199 49.8353V49.9748C45.6329 49.8818 48.3291 49.7424 50.6069 50.2072V50.0678ZM43.8664 49.8818C43.448 49.6029 42.9832 49.324 42.5183 48.9986L42.4253 49.1381C42.9367 49.4635 43.3551 49.7889 43.7734 50.0678L43.8664 49.8818ZM42.4718 48.9521C42.2859 48.8127 42.0534 48.6732 41.821 48.5337L41.728 48.6732C41.9605 48.8126 42.1464 48.9521 42.3788 49.0916L42.4718 48.9521ZM41.8675 48.5337C41.0307 47.9759 40.0545 47.3251 38.8924 46.7672L38.8459 46.9067C40.008 47.4645 40.9842 48.0689 41.821 48.6267L41.8675 48.5337ZM38.8459 46.7672C36.6145 45.6981 33.5929 44.8148 29.2232 44.7218V44.8613C33.5929 44.9543 36.568 45.791 38.7994 46.8602L38.8459 46.7672ZM29.1767 41.5143V44.8148H29.3161V41.5143H29.1767ZM28.0145 40.3521C28.6653 40.3521 29.1767 40.8635 29.1767 41.5143H29.3161C29.3161 40.7705 28.7118 40.2126 28.0145 40.2126V40.3521ZM17.3226 40.3521H28.0145V40.2126H17.3226V40.3521ZM29.1767 46.4418V57.7381H29.3161V46.4418H29.1767ZM32.8026 58.7143C31.594 58.2029 30.4318 57.7845 29.2232 57.6916V57.831C30.3853 57.924 31.5475 58.3424 32.7561 58.8537L32.8026 58.7143ZM36.3821 60.5272C35.1734 59.8764 33.9648 59.2256 32.8026 58.7143L32.7561 58.8537C33.9183 59.3651 35.1269 60.0159 36.3356 60.6202L36.3821 60.5272ZM36.3821 60.5272L36.2891 60.6667L36.3821 60.5272ZM37.2188 60.9456C36.9399 60.8062 36.7075 60.6667 36.4286 60.5272L36.3356 60.6667C36.6145 60.8062 36.8469 60.9456 37.1259 61.0851L37.2188 60.9456ZM46.4696 64.0137C43.355 64.0137 40.2405 62.5262 37.1723 60.9456L37.0794 61.0851C40.101 62.6656 43.2621 64.1997 46.4232 64.1997V64.0137H46.4696ZM58.3702 60.4343C54.1864 62.4797 49.6772 64.0137 46.5161 64.0137V64.1532C49.7237 64.1532 54.2794 62.6191 58.4632 60.5737L58.3702 60.4343ZM63.9951 57.1802C62.368 58.2959 60.4156 59.4581 58.3702 60.4808L58.4167 60.6202C60.5086 59.5975 62.461 58.4353 64.088 57.3197L63.9951 57.1802ZM67.528 54.1121C66.8307 54.9953 65.6221 56.0645 63.9951 57.1802L64.088 57.3197C65.7151 56.204 66.9702 55.0883 67.6675 54.2051L67.528 54.1121ZM68.0859 52.2526C68.1788 52.8105 68.0859 53.4148 67.528 54.1121L67.6675 54.2051C68.2253 53.5078 68.3648 52.8105 68.2718 52.2062L68.0859 52.2526ZM67.1096 50.7186C67.621 51.137 67.9929 51.6948 68.0859 52.2526L68.2253 52.2062C68.1324 51.6018 67.7605 51.044 67.2026 50.5791L67.1096 50.7186ZM63.5302 50.7651C64.5529 49.7424 66.0405 49.8818 67.1096 50.7186L67.2026 50.5791C66.0869 49.6959 64.5064 49.5564 63.3907 50.6721L63.5302 50.7651ZM58.8351 54.391C60.4156 53.5078 62.0426 52.2991 63.5302 50.8116L63.4372 50.7186C61.9497 52.2062 60.3226 53.4148 58.7421 54.2981L58.8351 54.391ZM54.5118 55.7856C55.7669 55.7856 57.301 55.2278 58.8351 54.391L58.7421 54.2516C57.208 55.0883 55.7205 55.5997 54.5118 55.6462V55.7856ZM54.4653 55.7856C54.5118 55.7856 54.5118 55.7856 54.4653 55.7856L54.5118 55.6462C54.5118 55.6462 54.5118 55.6462 54.4653 55.6462V55.7856ZM38.288 55.7856H54.5118V55.6462H38.288V55.7856ZM37.3583 54.8559C37.3583 55.3672 37.7767 55.7391 38.2415 55.7391V55.5997C37.8232 55.5997 37.4978 55.2743 37.4978 54.8559H37.3583ZM38.288 53.9726C37.7767 53.9726 37.4048 54.391 37.4048 54.8559H37.5442C37.5442 54.4375 37.8697 54.1121 38.288 54.1121V53.9726ZM53.5821 53.9726H38.288V54.1121H53.5821V53.9726ZM52.7453 52.9035C53.1172 53.2289 53.3961 53.6008 53.4891 54.0656L53.6286 54.0191C53.4891 53.5078 53.2102 53.0894 52.8383 52.764L52.7453 52.9035ZM50.2351 51.8343C51.3042 52.0667 52.141 52.3921 52.6988 52.857L52.7918 52.7175C52.1875 52.2062 51.3042 51.8808 50.2351 51.6483V51.8343ZM43.6805 51.6483C45.5399 51.5554 48.1432 51.4159 50.2815 51.8343L50.328 51.6948C48.1897 51.2764 45.5399 51.4159 43.6805 51.5089V51.6483ZM43.4015 51.6483H43.634V51.5089H43.4015V51.6483ZM43.1691 51.5554L43.4015 51.6948L43.448 51.5089L43.2156 51.3694L43.1691 51.5554ZM41.4026 50.3932C42.007 50.8116 42.5648 51.1835 43.1691 51.5089L43.2621 51.3694C42.7042 51.044 42.0999 50.6256 41.5421 50.2537L41.4026 50.3932ZM40.8448 50.0213C41.0307 50.1608 41.2167 50.3002 41.4026 50.3932L41.4956 50.2537C41.3096 50.1143 41.1237 49.9748 40.9378 49.8818L40.8448 50.0213ZM38.1021 48.3943C39.1713 48.9056 40.0545 49.4635 40.8448 50.0213L40.9378 49.8818C40.1475 49.324 39.2642 48.7662 38.1486 48.2548L38.1021 48.3943ZM29.2232 46.5348C33.3605 46.6278 36.0567 47.4181 38.0556 48.3943L38.1021 48.2548C36.1032 47.2786 33.3605 46.4883 29.1767 46.3953L29.2232 46.5348ZM17.648 41.9327V60.8062H17.7875V41.9327H17.648ZM27.5961 41.8397H17.741V41.9791H27.5961V41.8397ZM27.6891 60.8062V41.9327H27.5496V60.8062H27.6891ZM17.741 60.8991H27.5961V60.7597H17.741V60.8991Z" fill="white"/>
</g>
</g>
<path d="M83.688 42.36C84.664 42.568 85.448 43.056 86.04 43.824C86.632 44.576 86.928 45.44 86.928 46.416C86.928 47.824 86.432 48.944 85.44 49.776C84.464 50.592 83.096 51 81.336 51H73.488V34.152H81.072C82.784 34.152 84.12 34.544 85.08 35.328C86.056 36.112 86.544 37.176 86.544 38.52C86.544 39.512 86.28 40.336 85.752 40.992C85.24 41.648 84.552 42.104 83.688 42.36ZM77.592 40.968H80.28C80.952 40.968 81.464 40.824 81.816 40.536C82.184 40.232 82.368 39.792 82.368 39.216C82.368 38.64 82.184 38.2 81.816 37.896C81.464 37.592 80.952 37.44 80.28 37.44H77.592V40.968ZM80.616 47.688C81.304 47.688 81.832 47.536 82.2 47.232C82.584 46.912 82.776 46.456 82.776 45.864C82.776 45.272 82.576 44.808 82.176 44.472C81.792 44.136 81.256 43.968 80.568 43.968H77.592V47.688H80.616ZM102.532 37.608V51H98.4283V49.176C98.0123 49.768 97.4443 50.248 96.7243 50.616C96.0203 50.968 95.2363 51.144 94.3723 51.144C93.3483 51.144 92.4443 50.92 91.6603 50.472C90.8763 50.008 90.2683 49.344 89.8363 48.48C89.4043 47.616 89.1883 46.6 89.1883 45.432V37.608H93.2683V44.88C93.2683 45.776 93.5003 46.472 93.9643 46.968C94.4283 47.464 95.0523 47.712 95.8363 47.712C96.6363 47.712 97.2683 47.464 97.7323 46.968C98.1963 46.472 98.4283 45.776 98.4283 44.88V37.608H102.532ZM118.104 44.088C118.104 44.472 118.08 44.872 118.032 45.288H108.744C108.808 46.12 109.072 46.76 109.536 47.208C110.016 47.64 110.6 47.856 111.288 47.856C112.312 47.856 113.024 47.424 113.424 46.56H117.792C117.568 47.44 117.16 48.232 116.568 48.936C115.992 49.64 115.264 50.192 114.384 50.592C113.504 50.992 112.52 51.192 111.432 51.192C110.12 51.192 108.952 50.912 107.928 50.352C106.904 49.792 106.104 48.992 105.528 47.952C104.952 46.912 104.664 45.696 104.664 44.304C104.664 42.912 104.944 41.696 105.504 40.656C106.08 39.616 106.88 38.816 107.904 38.256C108.928 37.696 110.104 37.416 111.432 37.416C112.728 37.416 113.88 37.688 114.888 38.232C115.896 38.776 116.68 39.552 117.24 40.56C117.816 41.568 118.104 42.744 118.104 44.088ZM113.904 43.008C113.904 42.304 113.664 41.744 113.184 41.328C112.704 40.912 112.104 40.704 111.384 40.704C110.696 40.704 110.112 40.904 109.632 41.304C109.168 41.704 108.88 42.272 108.768 43.008H113.904ZM128.429 37.464C129.997 37.464 131.245 37.976 132.173 39C133.117 40.008 133.589 41.4 133.589 43.176V51H129.509V43.728C129.509 42.832 129.277 42.136 128.813 41.64C128.349 41.144 127.725 40.896 126.941 40.896C126.157 40.896 125.533 41.144 125.069 41.64C124.605 42.136 124.373 42.832 124.373 43.728V51H120.269V37.608H124.373V39.384C124.789 38.792 125.349 38.328 126.053 37.992C126.757 37.64 127.549 37.464 128.429 37.464ZM142.537 51.192C141.225 51.192 140.041 50.912 138.985 50.352C137.945 49.792 137.121 48.992 136.513 47.952C135.921 46.912 135.625 45.696 135.625 44.304C135.625 42.928 135.929 41.72 136.537 40.68C137.145 39.624 137.977 38.816 139.033 38.256C140.089 37.696 141.273 37.416 142.585 37.416C143.897 37.416 145.081 37.696 146.137 38.256C147.193 38.816 148.025 39.624 148.633 40.68C149.241 41.72 149.545 42.928 149.545 44.304C149.545 45.68 149.233 46.896 148.609 47.952C148.001 48.992 147.161 49.792 146.089 50.352C145.033 50.912 143.849 51.192 142.537 51.192ZM142.537 47.64C143.321 47.64 143.985 47.352 144.529 46.776C145.089 46.2 145.369 45.376 145.369 44.304C145.369 43.232 145.097 42.408 144.553 41.832C144.025 41.256 143.369 40.968 142.585 40.968C141.785 40.968 141.121 41.256 140.593 41.832C140.065 42.392 139.801 43.216 139.801 44.304C139.801 45.376 140.057 46.2 140.569 46.776C141.097 47.352 141.753 47.64 142.537 47.64ZM167.776 34.152V37.44H160.912V40.992H166.048V44.184H160.912V51H156.808V34.152H167.776ZM171.997 36.216C171.277 36.216 170.685 36.008 170.221 35.592C169.773 35.16 169.549 34.632 169.549 34.008C169.549 33.368 169.773 32.84 170.221 32.424C170.685 31.992 171.277 31.776 171.997 31.776C172.701 31.776 173.277 31.992 173.725 32.424C174.189 32.84 174.421 33.368 174.421 34.008C174.421 34.632 174.189 35.16 173.725 35.592C173.277 36.008 172.701 36.216 171.997 36.216ZM174.037 37.608V51H169.933V37.608H174.037ZM185.171 37.464C186.739 37.464 187.987 37.976 188.915 39C189.859 40.008 190.331 41.4 190.331 43.176V51H186.251V43.728C186.251 42.832 186.019 42.136 185.555 41.64C185.091 41.144 184.467 40.896 183.683 40.896C182.899 40.896 182.275 41.144 181.811 41.64C181.347 42.136 181.115 42.832 181.115 43.728V51H177.011V37.608H181.115V39.384C181.531 38.792 182.091 38.328 182.795 37.992C183.499 37.64 184.291 37.464 185.171 37.464ZM192.367 44.28C192.367 42.904 192.623 41.696 193.135 40.656C193.663 39.616 194.375 38.816 195.271 38.256C196.167 37.696 197.167 37.416 198.271 37.416C199.215 37.416 200.039 37.608 200.743 37.992C201.463 38.376 202.015 38.88 202.399 39.504V37.608H206.503V51H202.399V49.104C201.999 49.728 201.439 50.232 200.719 50.616C200.015 51 199.191 51.192 198.247 51.192C197.159 51.192 196.167 50.912 195.271 50.352C194.375 49.776 193.663 48.968 193.135 47.928C192.623 46.872 192.367 45.656 192.367 44.28ZM202.399 44.304C202.399 43.28 202.111 42.472 201.535 41.88C200.975 41.288 200.287 40.992 199.471 40.992C198.655 40.992 197.959 41.288 197.383 41.88C196.823 42.456 196.543 43.256 196.543 44.28C196.543 45.304 196.823 46.12 197.383 46.728C197.959 47.32 198.655 47.616 199.471 47.616C200.287 47.616 200.975 47.32 201.535 46.728C202.111 46.136 202.399 45.328 202.399 44.304ZM217.632 37.464C219.2 37.464 220.448 37.976 221.376 39C222.32 40.008 222.792 41.4 222.792 43.176V51H218.712V43.728C218.712 42.832 218.48 42.136 218.016 41.64C217.552 41.144 216.928 40.896 216.144 40.896C215.36 40.896 214.736 41.144 214.272 41.64C213.808 42.136 213.576 42.832 213.576 43.728V51H209.472V37.608H213.576V39.384C213.992 38.792 214.552 38.328 215.256 37.992C215.96 37.64 216.752 37.464 217.632 37.464ZM224.828 44.304C224.828 42.912 225.108 41.696 225.668 40.656C226.244 39.616 227.036 38.816 228.044 38.256C229.068 37.696 230.236 37.416 231.548 37.416C233.228 37.416 234.628 37.856 235.748 38.736C236.884 39.616 237.628 40.856 237.98 42.456H233.612C233.244 41.432 232.532 40.92 231.476 40.92C230.724 40.92 230.124 41.216 229.676 41.808C229.228 42.384 229.004 43.216 229.004 44.304C229.004 45.392 229.228 46.232 229.676 46.824C230.124 47.4 230.724 47.688 231.476 47.688C232.532 47.688 233.244 47.176 233.612 46.152H237.98C237.628 47.72 236.884 48.952 235.748 49.848C234.612 50.744 233.212 51.192 231.548 51.192C230.236 51.192 229.068 50.912 228.044 50.352C227.036 49.792 226.244 48.992 225.668 47.952C225.108 46.912 224.828 45.696 224.828 44.304ZM252.799 44.088C252.799 44.472 252.776 44.872 252.728 45.288H243.44C243.504 46.12 243.768 46.76 244.232 47.208C244.712 47.64 245.296 47.856 245.984 47.856C247.008 47.856 247.72 47.424 248.12 46.56H252.488C252.264 47.44 251.856 48.232 251.264 48.936C250.688 49.64 249.96 50.192 249.08 50.592C248.2 50.992 247.216 51.192 246.128 51.192C244.816 51.192 243.648 50.912 242.624 50.352C241.6 49.792 240.8 48.992 240.224 47.952C239.648 46.912 239.36 45.696 239.36 44.304C239.36 42.912 239.64 41.696 240.2 40.656C240.776 39.616 241.576 38.816 242.6 38.256C243.624 37.696 244.8 37.416 246.128 37.416C247.424 37.416 248.576 37.688 249.584 38.232C250.592 38.776 251.376 39.552 251.936 40.56C252.512 41.568 252.799 42.744 252.799 44.088ZM248.6 43.008C248.6 42.304 248.36 41.744 247.88 41.328C247.4 40.912 246.8 40.704 246.08 40.704C245.392 40.704 244.808 40.904 244.328 41.304C243.864 41.704 243.576 42.272 243.464 43.008H248.6Z" fill="#141414"/>
<defs>
<linearGradient id="paint0_linear_184_603" x1="2.73294" y1="2.72922" x2="90.3051" y2="90.3014" gradientUnits="userSpaceOnUse">
<stop stop-color="#4E9D70"/>
<stop offset="1" stop-color="#056A37"/>
</linearGradient>
</defs>
</svg>
