<svg width="196" height="95" viewBox="0 0 196 95" fill="none" xmlns="http://www.w3.org/2000/svg">
<g opacity="0.3">
<circle cx="47.5" cy="47.5" r="47.5" fill="#F0C60A"/>
<path d="M18.252 47.888C18.684 45.392 19.608 43.172 21.024 41.228C22.464 39.26 24.24 37.736 26.352 36.656C28.464 35.552 30.744 35 33.192 35C36.192 35 38.616 35.792 40.464 37.376C42.336 38.96 43.392 41.12 43.632 43.856H36.864C36.552 42.824 35.976 42.044 35.136 41.516C34.32 40.964 33.312 40.688 32.112 40.688C30.216 40.688 28.572 41.348 27.18 42.668C25.788 43.964 24.9 45.704 24.516 47.888C24.396 48.56 24.336 49.148 24.336 49.652C24.336 51.332 24.804 52.664 25.74 53.648C26.676 54.632 27.96 55.124 29.592 55.124C30.768 55.124 31.86 54.848 32.868 54.296C33.9 53.744 34.764 52.952 35.46 51.92H42.228C41.028 54.656 39.216 56.816 36.792 58.4C34.368 59.96 31.656 60.74 28.656 60.74C26.496 60.74 24.612 60.32 23.004 59.48C21.396 58.64 20.16 57.452 19.296 55.916C18.432 54.38 18 52.592 18 50.552C18 49.64 18.084 48.752 18.252 47.888Z" fill="#1483DC"/>
<path d="M53.5579 35.288L56.4739 54.368L66.0859 35.288H72.6379L59.2099 60.56H51.5059L47.0059 35.288H53.5579Z" fill="#1483DC"/>
</g>
<path d="M62.792 47.552C62.792 45.888 63.152 44.408 63.872 43.112C64.592 41.8 65.592 40.784 66.872 40.064C68.168 39.328 69.632 38.96 71.264 38.96C73.264 38.96 74.976 39.488 76.4 40.544C77.824 41.6 78.776 43.04 79.256 44.864H74.744C74.408 44.16 73.928 43.624 73.304 43.256C72.696 42.888 72 42.704 71.216 42.704C69.952 42.704 68.928 43.144 68.144 44.024C67.36 44.904 66.968 46.08 66.968 47.552C66.968 49.024 67.36 50.2 68.144 51.08C68.928 51.96 69.952 52.4 71.216 52.4C72 52.4 72.696 52.216 73.304 51.848C73.928 51.48 74.408 50.944 74.744 50.24H79.256C78.776 52.064 77.824 53.504 76.4 54.56C74.976 55.6 73.264 56.12 71.264 56.12C69.632 56.12 68.168 55.76 66.872 55.04C65.592 54.304 64.592 53.288 63.872 51.992C63.152 50.696 62.792 49.216 62.792 47.552ZM80.9533 49.28C80.9533 47.904 81.2093 46.696 81.7213 45.656C82.2493 44.616 82.9613 43.816 83.8573 43.256C84.7533 42.696 85.7533 42.416 86.8573 42.416C87.8013 42.416 88.6253 42.608 89.3293 42.992C90.0493 43.376 90.6013 43.88 90.9853 44.504V42.608H95.0893V56H90.9853V54.104C90.5853 54.728 90.0253 55.232 89.3053 55.616C88.6013 56 87.7773 56.192 86.8333 56.192C85.7453 56.192 84.7533 55.912 83.8573 55.352C82.9613 54.776 82.2493 53.968 81.7213 52.928C81.2093 51.872 80.9533 50.656 80.9533 49.28ZM90.9853 49.304C90.9853 48.28 90.6973 47.472 90.1213 46.88C89.5613 46.288 88.8733 45.992 88.0573 45.992C87.2413 45.992 86.5453 46.288 85.9693 46.88C85.4093 47.456 85.1293 48.256 85.1293 49.28C85.1293 50.304 85.4093 51.12 85.9693 51.728C86.5453 52.32 87.2413 52.616 88.0573 52.616C88.8733 52.616 89.5613 52.32 90.1213 51.728C90.6973 51.136 90.9853 50.328 90.9853 49.304ZM102.162 44.84C102.642 44.104 103.242 43.528 103.962 43.112C104.682 42.68 105.482 42.464 106.362 42.464V46.808H105.234C104.21 46.808 103.442 47.032 102.93 47.48C102.418 47.912 102.162 48.68 102.162 49.784V56H98.0583V42.608H102.162V44.84ZM120.948 49.088C120.948 49.472 120.924 49.872 120.876 50.288H111.588C111.652 51.12 111.916 51.76 112.38 52.208C112.86 52.64 113.444 52.856 114.132 52.856C115.156 52.856 115.868 52.424 116.268 51.56H120.636C120.412 52.44 120.004 53.232 119.412 53.936C118.836 54.64 118.108 55.192 117.228 55.592C116.348 55.992 115.364 56.192 114.276 56.192C112.964 56.192 111.796 55.912 110.772 55.352C109.748 54.792 108.948 53.992 108.372 52.952C107.796 51.912 107.508 50.696 107.508 49.304C107.508 47.912 107.788 46.696 108.348 45.656C108.924 44.616 109.724 43.816 110.748 43.256C111.772 42.696 112.948 42.416 114.276 42.416C115.572 42.416 116.724 42.688 117.732 43.232C118.74 43.776 119.524 44.552 120.084 45.56C120.66 46.568 120.948 47.744 120.948 49.088ZM116.748 48.008C116.748 47.304 116.508 46.744 116.028 46.328C115.548 45.912 114.948 45.704 114.228 45.704C113.54 45.704 112.956 45.904 112.476 46.304C112.012 46.704 111.724 47.272 111.612 48.008H116.748ZM135.737 49.088C135.737 49.472 135.713 49.872 135.665 50.288H126.377C126.441 51.12 126.705 51.76 127.169 52.208C127.649 52.64 128.233 52.856 128.921 52.856C129.945 52.856 130.657 52.424 131.057 51.56H135.425C135.201 52.44 134.793 53.232 134.201 53.936C133.625 54.64 132.897 55.192 132.017 55.592C131.137 55.992 130.153 56.192 129.065 56.192C127.753 56.192 126.585 55.912 125.561 55.352C124.537 54.792 123.737 53.992 123.161 52.952C122.585 51.912 122.297 50.696 122.297 49.304C122.297 47.912 122.577 46.696 123.137 45.656C123.713 44.616 124.513 43.816 125.537 43.256C126.561 42.696 127.737 42.416 129.065 42.416C130.361 42.416 131.513 42.688 132.521 43.232C133.529 43.776 134.313 44.552 134.873 45.56C135.449 46.568 135.737 47.744 135.737 49.088ZM131.537 48.008C131.537 47.304 131.297 46.744 130.817 46.328C130.337 45.912 129.737 45.704 129.017 45.704C128.329 45.704 127.745 45.904 127.265 46.304C126.801 46.704 126.513 47.272 126.401 48.008H131.537ZM142.006 44.84C142.486 44.104 143.086 43.528 143.806 43.112C144.526 42.68 145.326 42.464 146.206 42.464V46.808H145.078C144.054 46.808 143.286 47.032 142.774 47.48C142.262 47.912 142.006 48.68 142.006 49.784V56H137.902V42.608H142.006V44.84ZM154.192 52.16L157.096 42.608H161.464L156.712 56H151.648L146.896 42.608H151.288L154.192 52.16ZM165.255 41.216C164.535 41.216 163.943 41.008 163.479 40.592C163.031 40.16 162.807 39.632 162.807 39.008C162.807 38.368 163.031 37.84 163.479 37.424C163.943 36.992 164.535 36.776 165.255 36.776C165.959 36.776 166.535 36.992 166.983 37.424C167.447 37.84 167.679 38.368 167.679 39.008C167.679 39.632 167.447 40.16 166.983 40.592C166.535 41.008 165.959 41.216 165.255 41.216ZM167.295 42.608V56H163.191V42.608H167.295ZM174.373 44.84C174.853 44.104 175.453 43.528 176.173 43.112C176.893 42.68 177.693 42.464 178.573 42.464V46.808H177.445C176.421 46.808 175.653 47.032 175.141 47.48C174.629 47.912 174.373 48.68 174.373 49.784V56H170.269V42.608H174.373V44.84ZM179.719 49.28C179.719 47.904 179.975 46.696 180.487 45.656C181.015 44.616 181.727 43.816 182.623 43.256C183.519 42.696 184.519 42.416 185.623 42.416C186.567 42.416 187.391 42.608 188.095 42.992C188.815 43.376 189.367 43.88 189.751 44.504V42.608H193.855V56H189.751V54.104C189.351 54.728 188.791 55.232 188.071 55.616C187.367 56 186.543 56.192 185.599 56.192C184.511 56.192 183.519 55.912 182.623 55.352C181.727 54.776 181.015 53.968 180.487 52.928C179.975 51.872 179.719 50.656 179.719 49.28ZM189.751 49.304C189.751 48.28 189.463 47.472 188.887 46.88C188.327 46.288 187.639 45.992 186.823 45.992C186.007 45.992 185.311 46.288 184.735 46.88C184.175 47.456 183.895 48.256 183.895 49.28C183.895 50.304 184.175 51.12 184.735 51.728C185.311 52.32 186.007 52.616 186.823 52.616C187.639 52.616 188.327 52.32 188.887 51.728C189.463 51.136 189.751 50.328 189.751 49.304Z" fill="#141414"/>
</svg>
