<svg width="139" height="61" viewBox="0 0 139 61" fill="none" xmlns="http://www.w3.org/2000/svg">
<rect width="139" height="61" fill="white"/>
<path d="M11.8672 53.4009V44.0572C13.0599 44.0572 14.3508 44.0438 15.5432 44.0572C17.4576 44.0572 18.8412 45.364 18.8412 47.1634C18.8412 48.9633 17.4576 50.2403 15.5432 50.2403H12.5455V53.4005H11.8672V53.4009ZM15.5432 49.6144C17.0074 49.6144 18.1613 48.6288 18.1613 47.1487C18.1613 45.6706 17.0508 44.6697 15.5432 44.6697H12.5455V49.6141H15.5432V49.6144Z" fill="#00A6CA"/>
<path d="M22.053 53.5064C20.9127 53.5064 19.7339 52.9216 19.7339 51.6956C19.7339 50.297 20.9814 49.6146 22.2975 49.6146C23.1097 49.6146 23.9402 49.7762 24.6998 50.0949V48.9756C24.6998 47.7241 23.5314 47.4409 22.4883 47.4409C21.729 47.4409 20.9415 47.6147 20.3856 47.9371L20.2357 47.4026C20.8447 47.0681 21.7151 46.8694 22.5709 46.8694C23.9816 46.8694 25.3111 47.3893 25.3111 48.9877V51.9216C25.3111 52.6952 25.2677 53.1349 26.1359 53.0276L26.1631 53.4672C25.0504 53.6404 24.7536 53.2539 24.7925 52.2428C24.2781 53.1756 23.1378 53.5064 22.053 53.5064ZM24.6995 50.6428C23.9516 50.2681 23.1514 50.1217 22.3782 50.1357C21.4015 50.1357 20.3711 50.5912 20.3711 51.6424C20.3711 52.6281 21.2506 52.9614 22.1599 52.9614C23.2201 52.9614 24.4138 52.4962 24.6992 51.3884V50.6428H24.6995Z" fill="#00A6CA"/>
<path d="M30.448 46.8841C31.0855 46.895 31.6566 47.0682 32.092 47.376L31.8588 47.9372C31.4396 47.6288 30.8982 47.4951 30.3658 47.4951C29.3913 47.4951 28.4536 48.1502 28.4536 49.2441V53.4008H27.8034V48.4559C27.8034 47.8297 27.7885 47.4295 26.9615 47.5377L26.9365 46.9625C27.9784 46.7899 28.4011 47.178 28.4011 47.9239C28.8339 47.1634 29.6906 46.8428 30.448 46.8841Z" fill="#00A6CA"/>
<path d="M34.7356 46.9765H37.2718V47.5231H34.7356V50.9887C34.7356 52.3197 35.1583 52.8701 36.0081 52.8822C36.4194 52.8822 36.9187 52.7759 37.5002 52.575L37.5986 53.1216C36.9873 53.3337 36.4299 53.4294 35.9695 53.4294C34.7473 53.4294 34.0861 52.6953 34.0861 51.002V47.5231L32.5928 47.4824V46.9765H34.0861L34.1396 45.0173H34.7359V46.9765H34.7356Z" fill="#00A6CA"/>
<path d="M45.4588 53.5064C43.7365 53.5064 42.0283 52.3883 42.0283 50.1755C42.0283 47.948 43.751 46.8694 45.4728 46.8694C47.1939 46.8694 48.8916 47.9632 48.8916 50.1755C48.8916 52.3886 47.1689 53.5064 45.4588 53.5064ZM45.4588 52.9362C46.8424 52.9362 48.2417 52.0034 48.2417 50.1755C48.2417 48.35 46.856 47.4701 45.4728 47.4567C44.0756 47.4409 42.6798 48.3366 42.6798 50.1755C42.6798 52.0034 44.0642 52.9362 45.4588 52.9362Z" fill="#00A6CA"/>
<path d="M51.2489 47.5374H49.7157V46.9761H51.2489V45.8164C51.2489 43.5118 53.0946 43.1906 54.8423 43.9222L54.7075 44.4421C53.3642 43.8706 51.9009 43.9514 51.9009 45.831V46.9764H54.4244V47.5377H51.9009V53.4008H51.2486V47.5374H51.2489Z" fill="#00A6CA"/>
<path d="M57.6499 44.6842V44.0688H64.5654V44.6842H61.4458V53.401H60.7685V44.6842H57.6499Z" fill="#00A6CA"/>
<path d="M67.6298 46.8841C68.2673 46.895 68.8381 47.0682 69.2712 47.376L69.0412 47.9372C68.6211 47.6288 68.0785 47.4951 67.5495 47.4951C66.5728 47.4951 65.6373 48.1502 65.6373 49.2441V53.4008H64.9858V48.4559C64.9858 47.8297 64.9722 47.4295 64.1452 47.5377L64.1177 46.9625C65.1617 46.7899 65.5822 47.178 65.5822 47.9239C66.0157 47.1634 66.8702 46.8428 67.6298 46.8841Z" fill="#00A6CA"/>
<path d="M72.2304 53.5064C71.0901 53.5064 69.9116 52.9216 69.9116 51.6956C69.9116 50.297 71.1575 49.6146 72.474 49.6146C73.2871 49.6146 74.1132 49.7762 74.874 50.0949V48.9756C74.874 47.7241 73.7066 47.4409 72.6635 47.4409C71.9042 47.4409 71.1158 47.6147 70.5608 47.9371L70.4121 47.4026C71.0221 47.0681 71.8903 46.8694 72.7448 46.8694C74.1568 46.8694 75.4862 47.3893 75.4862 48.9877V51.9216C75.4862 52.6952 75.4451 53.1349 76.312 53.0276L76.3383 53.4672C75.2281 53.6404 74.9288 53.2539 74.9677 52.2428C74.4558 53.1756 73.3156 53.5064 72.2304 53.5064ZM74.874 50.6428C74.1271 50.2681 73.3295 50.1217 72.555 50.1357C71.577 50.1357 70.5466 50.5912 70.5466 51.6424C70.5466 52.6281 71.4287 52.9614 72.3379 52.9614C73.3947 52.9614 74.588 52.4962 74.874 51.3884V50.6428Z" fill="#00A6CA"/>
<path d="M82.9442 53.4011V49.4956C82.9442 48.2155 82.076 47.4702 80.8149 47.4702C79.5254 47.4702 78.5898 48.2693 78.5898 49.6029V53.4008H77.9397V48.6433C77.9397 47.6145 77.8289 47.4027 77.1092 47.5085L77.0978 46.9503C78.0871 46.8033 78.5487 47.0153 78.5487 48.0429C79.1337 47.2165 79.9332 46.8552 80.9636 46.8698C82.6155 46.8698 83.5956 47.9484 83.5956 49.4956V53.4011H82.9442Z" fill="#00A6CA"/>
<path d="M85.8539 51.6144C85.9659 52.5485 87.0371 52.9754 88.0951 52.9754C89.1667 52.9754 90.2664 52.5892 90.2664 51.6685C90.2664 50.4808 88.9769 50.4808 88.1087 50.3751C86.8043 50.2293 85.4106 50.0029 85.4106 48.6815C85.4106 47.3498 86.7116 46.8694 88.0562 46.8694C89.4109 46.8694 90.6986 47.4172 90.6986 48.5611H90.101C90.101 47.7621 89.0844 47.4023 88.0654 47.4023C87.0761 47.4023 85.9371 47.7617 86.0045 48.6684C86.0045 49.6565 87.4301 49.7343 88.1872 49.8415C89.5581 50.0268 90.9299 50.1481 90.8878 51.6682C90.8878 52.9502 89.5581 53.5058 88.0799 53.5058C86.6964 53.5058 85.367 52.975 85.2183 51.6141H85.8539V51.6144Z" fill="#00A6CA"/>
<path d="M92.6328 50.2031V44.0688H93.3134V50.1891C93.3134 51.9082 94.4925 52.8824 96.2026 52.8824C97.8965 52.8824 99.0626 51.9082 99.0626 50.1891V44.0688H99.7277V50.2031C99.7277 52.282 98.2771 53.5067 96.2026 53.5067C94.1144 53.5067 92.6328 52.282 92.6328 50.2031Z" fill="#00A6CA"/>
<path d="M107.201 53.4011V49.4956C107.201 48.2155 106.331 47.4702 105.07 47.4702C103.782 47.4702 102.847 48.2693 102.847 49.6029V53.4008H102.194V48.6433C102.194 47.6145 102.088 47.4027 101.367 47.5085L101.354 46.9503C102.345 46.8033 102.805 47.0153 102.805 48.0429C103.388 47.2165 104.189 46.8552 105.219 46.8698C106.875 46.8698 107.851 47.9484 107.851 49.4956V53.4011H107.201Z" fill="#00A6CA"/>
<path d="M110.346 44.2683C110.564 44.2829 110.782 44.4309 110.782 44.7226C110.782 45.017 110.578 45.1616 110.359 45.1775C110.13 45.189 109.885 45.0292 109.885 44.7226C109.885 44.4163 110.116 44.2577 110.346 44.2683ZM110.645 53.4005H110.009V46.9762H110.645V53.4005Z" fill="#00A6CA"/>
<path d="M115.88 53.5064C114.153 53.5064 112.446 52.3883 112.446 50.1755C112.446 47.948 114.168 46.8694 115.89 46.8694C117.614 46.8694 119.31 47.9632 119.31 50.1755C119.31 52.3886 117.585 53.5064 115.88 53.5064ZM115.88 52.9362C117.259 52.9362 118.657 52.0034 118.657 50.1755C118.657 48.35 117.274 47.4701 115.89 47.4567C114.495 47.4409 113.097 48.3366 113.097 50.1755C113.097 52.0034 114.48 52.9362 115.88 52.9362Z" fill="#00A6CA"/>
<path d="M126.268 53.4011V49.4956C126.268 48.2155 125.401 47.4702 124.14 47.4702C122.849 47.4702 121.914 48.2693 121.914 49.6029V53.4008H121.263V48.6433C121.263 47.6145 121.153 47.4027 120.434 47.5085L120.422 46.9503C121.412 46.8033 121.873 47.0153 121.873 48.0429C122.456 47.2165 123.255 46.8552 124.288 46.8698C125.942 46.8698 126.918 47.9484 126.918 49.4956V53.4011H126.268Z" fill="#00A6CA"/>
<path d="M27.932 7.49268C34.1758 7.49268 40.647 10.8958 42.3334 17.9734H37.2304C35.6334 14.0793 32.0807 12.2844 27.8874 12.2399C21.3702 12.2399 17.0361 16.8973 17.0361 23.5738C17.0361 29.797 21.3702 34.7662 27.8874 34.7662C32.2636 34.7662 35.9532 32.6631 37.3652 28.4967H42.5172C40.9214 36.1582 34.3587 39.5168 27.8874 39.5168C19.2274 39.5168 11.7061 33.65 11.7061 23.5738C11.7061 13.4488 19.2274 7.49268 27.932 7.49268Z" fill="#00A6CA"/>
<path d="M59.1902 34.9941V39.2025H43.7871V34.9941H48.8464V12.017H44.1962V7.84717H58.7811V12.017H54.1322V34.9941H59.1902Z" fill="#00A6CA"/>
<path d="M81.8391 22.7218C85.169 23.8417 86.9898 26.4395 86.9898 29.9769C86.9898 35.5776 83.0704 39.2043 76.8713 39.2043H62.6056V7.85205H75.5494C81.3376 7.85205 85.5737 10.7636 85.5737 16.6764C85.5737 19.3175 84.3467 21.5117 81.8391 22.7218ZM67.8936 12.3738V21.0191H75.1853C78.2396 21.0191 80.3347 19.855 80.3828 16.8077C80.3828 13.7177 78.2842 12.3738 75.1853 12.3738H67.8936ZM67.8936 25.2714V34.6343H76.5558C79.5156 34.6343 81.6097 32.9795 81.7489 29.9769C81.7489 28.4099 81.2019 27.154 80.1085 26.2623C78.8749 25.3647 77.4218 25.2714 75.9594 25.2714H67.8936Z" fill="#00A6CA"/>
<path d="M104.53 34.9941V39.2025H89.127V34.9941H94.1853V12.017H89.5379V7.84717H104.121V12.017H99.472V34.9941H104.53Z" fill="#00A6CA"/>
<path d="M113.281 34.4982H127V39.2025H107.949V7.84717H113.281V34.4982Z" fill="#00A6CA"/>
</svg>
