<svg width="139" height="61" viewBox="0 0 139 61" fill="none" xmlns="http://www.w3.org/2000/svg">
<rect width="139" height="61" fill="white"/>
<path d="M15.374 24.5341V29.5051H10.074V24.5341H8V36.4651H10.071V31.1651H15.371V36.4651H17.446V24.5341H15.374Z" fill="#36B6B0"/>
<path d="M29.2949 31.1632H23.5769V34.8092H29.2939V36.4662H21.5059V24.5342H29.2949V26.1912H23.5769V29.5052H29.2939L29.2949 31.1632Z" fill="#36B6B0"/>
<path d="M39.7348 33.6512H35.0948L34.1008 36.3852H31.9458L36.4198 24.4512H38.2458L42.7198 36.3822H40.5628L39.7348 33.6512ZM35.6748 31.9942H39.1548L37.4148 27.0232L35.6748 31.9942Z" fill="#36B6B0"/>
<path d="M47.0251 34.8081H52.4111V36.4651H44.9541V24.5341H47.0251V34.8081Z" fill="#36B6B0"/>
<path d="M63.0168 26.1911H59.2878V36.4651H57.2168V26.1911H53.5708V24.5341H63.0168V26.1911Z" fill="#36B6B0"/>
<path d="M76.1089 29.506V24.534H78.1799V36.466H76.1089V31.166H70.8089V36.466H68.7339V24.534H70.8049V29.505L76.1089 29.506ZM84.8089 28.677L88.2889 24.534H90.7749L86.3839 29.834L91.1069 36.463H88.6199L85.0569 31.326L83.7309 32.735V36.464H81.6599V24.534H83.7309V30.085L84.8089 28.677ZM65.4199 45H94.4199V16H65.4199V45Z" fill="#36B6B0"/>
<path d="M104.115 33.6512H99.4752L98.4812 36.3852H96.3262L100.8 24.4512H102.626L107.1 36.3822H104.946L104.115 33.6512ZM100.055 31.9942H103.535L101.795 27.0232L100.055 31.9942Z" fill="#36B6B0"/>
<path d="M114.388 31.825H112.068V36.382H109.997V24.534H114.223C114.84 24.5238 115.455 24.6078 116.046 24.783C116.519 24.9363 116.966 25.1598 117.372 25.446C117.738 25.7597 118.023 26.1578 118.201 26.606C118.377 27.1116 118.462 27.6447 118.45 28.18C118.5 28.8909 118.294 29.5962 117.87 30.169C117.439 30.6903 116.903 31.114 116.296 31.412L118.947 36.383V36.466H116.71L114.388 31.825ZM112.068 30.168H114.222C114.559 30.1532 114.893 30.0975 115.216 30.002C115.466 29.9161 115.692 29.7744 115.879 29.5878C116.065 29.4012 116.207 29.1745 116.293 28.925C116.402 28.6625 116.459 28.3809 116.459 28.0965C116.459 27.8121 116.402 27.5306 116.293 27.268C116.207 27.0185 116.065 26.7919 115.879 26.6053C115.692 26.4187 115.466 26.277 115.216 26.191C114.896 26.0817 114.56 26.0256 114.222 26.025H112.068V30.168Z" fill="#36B6B0"/>
<path d="M130.297 26.1909H126.568V36.4649H124.497V26.1909H120.851V24.5339H130.297V26.1909Z" fill="#36B6B0"/>
</svg>
