<svg width="139" height="61" viewBox="0 0 139 61" fill="none" xmlns="http://www.w3.org/2000/svg">
<rect width="139" height="61" fill="white"/>
<path d="M105.772 50C116.374 50 125 41.0272 125 30C125 18.9663 116.374 10 105.772 10C95.1682 10 86.544 18.9663 86.544 30C86.544 41.0272 95.1682 50 105.772 50ZM105.772 22.8683C109.55 22.8683 112.627 26.0675 112.627 29.9978C112.627 33.9282 109.548 37.123 105.77 37.123C101.99 37.123 98.9169 33.9282 98.9169 29.9956C98.9169 26.0609 101.992 22.864 105.77 22.864L105.772 22.8683ZM33.228 50C43.8297 50 52.456 41.0272 52.456 30C52.456 18.9663 43.8297 10 33.228 10C22.6284 10 14 18.9663 14 30C14 41.0272 22.6284 50 33.228 50ZM33.228 22.8683C37.0083 22.8683 40.0831 26.0675 40.0831 29.9978C40.0831 33.9282 37.0083 37.123 33.228 37.123C29.4498 37.123 26.3771 33.9282 26.3771 29.9956C26.3771 26.0609 29.4519 22.864 33.228 22.864V22.8683ZM69.4895 22.4178L63.5863 10.2612H49.7645L62.6744 36.8553V49.3754H76.3067V36.8553L89.2166 10.2612H75.3884L69.4916 22.4178H69.4895Z" fill="#EE2E24"/>
</svg>
